<?xml version="1.0" encoding="UTF-8" standalone="no"?>
<!DOCTYPE svg PUBLIC "-//W3C//DTD SVG 1.1//EN"
 "http://www.w3.org/Graphics/SVG/1.1/DTD/svg11.dtd">
<!-- Generated by graphviz version 2.38.0 (20140413.2041)
 -->
<!-- Title: controllers_diagram Pages: 1 -->
<svg width="463pt" height="381pt"
 viewBox="0.00 0.00 463.42 381.00" xmlns="http://www.w3.org/2000/svg" xmlns:xlink="http://www.w3.org/1999/xlink">
<g id="graph0" class="graph" transform="scale(1 1) rotate(0) translate(171.707 209.5)">
<title>controllers_diagram</title>
<polygon fill="none" stroke="none" points="-171.707,171.5 -171.707,-209.5 291.714,-209.5 291.714,171.5 -171.707,171.5"/>
<!-- _diagram_info -->
<g id="node1" class="node"><title>_diagram_info</title>
<text text-anchor="start" x="-104.45" y="-17.1" font-family="Times,serif" font-size="13.00">Controllers diagram</text>
<text text-anchor="start" x="-104.45" y="-4.1" font-family="Times,serif" font-size="13.00">Date: Aug 22 2016 &#45; 18:02</text>
<text text-anchor="start" x="-104.45" y="8.9" font-family="Times,serif" font-size="13.00">Migration version: 20160119152016</text>
<text text-anchor="start" x="-104.45" y="21.9" font-family="Times,serif" font-size="13.00">Generated by RailRoady 1.5.1</text>
<text text-anchor="start" x="-104.45" y="34.9" font-family="Times,serif" font-size="13.00">http://railroady.prestonlee.com</text>
</g>
<!-- ApplicationController -->
<g id="node2" class="node"><title>ApplicationController</title>
<path fill="none" stroke="black" d="M-99.8208,-113C-99.8208,-113 15.8208,-113 15.8208,-113 21.8208,-113 27.8208,-119 27.8208,-125 27.8208,-125 27.8208,-193 27.8208,-193 27.8208,-199 21.8208,-205 15.8208,-205 15.8208,-205 -99.8208,-205 -99.8208,-205 -105.821,-205 -111.821,-199 -111.821,-193 -111.821,-193 -111.821,-125 -111.821,-125 -111.821,-119 -105.821,-113 -99.8208,-113"/>
<text text-anchor="middle" x="-42" y="-189.8" font-family="Times,serif" font-size="14.00">ApplicationController</text>
<polyline fill="none" stroke="black" points="-111.821,-183 27.8208,-183 "/>
<polyline fill="none" stroke="black" points="-111.821,-159 27.8208,-159 "/>
<polyline fill="none" stroke="black" points="-111.821,-135 27.8208,-135 "/>
<text text-anchor="start" x="-103.821" y="-119.8" font-family="Times,serif" font-size="14.00">_layout</text>
</g>
<!-- CategoriesController -->
<g id="node3" class="node"><title>CategoriesController</title>
<path fill="none" stroke="black" d="M-155.707,167C-155.707,167 -46.293,167 -46.293,167 -40.293,167 -34.293,161 -34.293,155 -34.293,155 -34.293,89 -34.293,89 -34.293,83 -40.293,77 -46.293,77 -46.293,77 -155.707,77 -155.707,77 -161.707,77 -167.707,83 -167.707,89 -167.707,89 -167.707,155 -167.707,155 -167.707,161 -161.707,167 -155.707,167"/>
<text text-anchor="middle" x="-101" y="92.2" font-family="Times,serif" font-size="14.00">CategoriesController</text>
<polyline fill="none" stroke="black" points="-167.707,99 -34.293,99 "/>
<text text-anchor="start" x="-159.707" y="114.2" font-family="Times,serif" font-size="14.00">show</text>
<polyline fill="none" stroke="black" points="-167.707,121 -34.293,121 "/>
<polyline fill="none" stroke="black" points="-167.707,145 -34.293,145 "/>
<text text-anchor="start" x="-159.707" y="160.2" font-family="Times,serif" font-size="14.00">_layout</text>
</g>
<!-- CommentsController -->
<g id="node4" class="node"><title>CommentsController</title>
<path fill="none" stroke="black" d="M137.893,125C137.893,125 248.107,125 248.107,125 254.107,125 260.107,119 260.107,113 260.107,113 260.107,33 260.107,33 260.107,27 254.107,21 248.107,21 248.107,21 137.893,21 137.893,21 131.893,21 125.893,27 125.893,33 125.893,33 125.893,113 125.893,113 125.893,119 131.893,125 137.893,125"/>
<text text-anchor="middle" x="193" y="36.2" font-family="Times,serif" font-size="14.00">CommentsController</text>
<polyline fill="none" stroke="black" points="125.893,43 260.107,43 "/>
<text text-anchor="start" x="133.893" y="58.2" font-family="Times,serif" font-size="14.00">create</text>
<polyline fill="none" stroke="black" points="125.893,65 260.107,65 "/>
<polyline fill="none" stroke="black" points="125.893,89 260.107,89 "/>
<text text-anchor="start" x="133.893" y="104.2" font-family="Times,serif" font-size="14.00">_layout</text>
<text text-anchor="start" x="133.893" y="118.2" font-family="Times,serif" font-size="14.00">comment_params</text>
</g>
<!-- PostsController -->
<g id="node5" class="node"><title>PostsController</title>
<path fill="none" stroke="black" d="M68.4414,-57C68.4414,-57 147.559,-57 147.559,-57 153.559,-57 159.559,-63 159.559,-69 159.559,-69 159.559,-191 159.559,-191 159.559,-197 153.559,-203 147.559,-203 147.559,-203 68.4414,-203 68.4414,-203 62.4414,-203 56.4414,-197 56.4414,-191 56.4414,-191 56.4414,-69 56.4414,-69 56.4414,-63 62.4414,-57 68.4414,-57"/>
<text text-anchor="middle" x="108" y="-187.8" font-family="Times,serif" font-size="14.00">PostsController</text>
<polyline fill="none" stroke="black" points="56.4414,-181 159.559,-181 "/>
<text text-anchor="start" x="64.4414" y="-165.8" font-family="Times,serif" font-size="14.00">create</text>
<text text-anchor="start" x="64.4414" y="-151.8" font-family="Times,serif" font-size="14.00">index</text>
<text text-anchor="start" x="64.4414" y="-137.8" font-family="Times,serif" font-size="14.00">new</text>
<text text-anchor="start" x="64.4414" y="-123.8" font-family="Times,serif" font-size="14.00">show</text>
<polyline fill="none" stroke="black" points="56.4414,-117 159.559,-117 "/>
<polyline fill="none" stroke="black" points="56.4414,-93 159.559,-93 "/>
<text text-anchor="start" x="64.4414" y="-77.8" font-family="Times,serif" font-size="14.00">_layout</text>
<text text-anchor="start" x="64.4414" y="-63.8" font-family="Times,serif" font-size="14.00">post_params</text>
</g>
<!-- UsersController -->
<g id="node6" class="node"><title>UsersController</title>
<path fill="none" stroke="black" d="M194.286,-15C194.286,-15 275.714,-15 275.714,-15 281.714,-15 287.714,-21 287.714,-27 287.714,-27 287.714,-93 287.714,-93 287.714,-99 281.714,-105 275.714,-105 275.714,-105 194.286,-105 194.286,-105 188.286,-105 182.286,-99 182.286,-93 182.286,-93 182.286,-27 182.286,-27 182.286,-21 188.286,-15 194.286,-15"/>
<text text-anchor="middle" x="235" y="-89.8" font-family="Times,serif" font-size="14.00">UsersController</text>
<polyline fill="none" stroke="black" points="182.286,-83 287.714,-83 "/>
<text text-anchor="start" x="190.286" y="-67.8" font-family="Times,serif" font-size="14.00">show</text>
<polyline fill="none" stroke="black" points="182.286,-61 287.714,-61 "/>
<polyline fill="none" stroke="black" points="182.286,-37 287.714,-37 "/>
<text text-anchor="start" x="190.286" y="-21.8" font-family="Times,serif" font-size="14.00">_layout</text>
</g>
</g>
</svg>
