<?xml version="1.0" encoding="UTF-8" standalone="no"?>
<!DOCTYPE svg PUBLIC "-//W3C//DTD SVG 1.1//EN"
 "http://www.w3.org/Graphics/SVG/1.1/DTD/svg11.dtd">
<!-- Generated by graphviz version 2.38.0 (20140413.2041)
 -->
<!-- Title: models_diagram Pages: 1 -->
<svg width="441pt" height="520pt"
 viewBox="0.00 0.00 440.96 520.00" xmlns="http://www.w3.org/2000/svg" xmlns:xlink="http://www.w3.org/1999/xlink">
<g id="graph0" class="graph" transform="scale(1 1) rotate(0) translate(4 516)">
<title>models_diagram</title>
<polygon fill="none" stroke="none" points="-4,4 -4,-516 436.955,-516 436.955,4 -4,4"/>
<!-- _diagram_info -->
<g id="node1" class="node"><title>_diagram_info</title>
<text text-anchor="start" x="8" y="-490.6" font-family="Times,serif" font-size="13.00">Models diagram</text>
<text text-anchor="start" x="8" y="-477.6" font-family="Times,serif" font-size="13.00">Date: Aug 22 2016 &#45; 18:02</text>
<text text-anchor="start" x="8" y="-464.6" font-family="Times,serif" font-size="13.00">Migration version: 20160119152016</text>
<text text-anchor="start" x="8" y="-451.6" font-family="Times,serif" font-size="13.00">Generated by RailRoady 1.5.1</text>
<text text-anchor="start" x="8" y="-438.6" font-family="Times,serif" font-size="13.00">http://railroady.prestonlee.com</text>
</g>
<!-- Category -->
<g id="node2" class="node"><title>Category</title>
<path fill="none" stroke="black" d="M236.944,-425.5C236.944,-425.5 345.955,-425.5 345.955,-425.5 351.955,-425.5 357.955,-431.5 357.955,-437.5 357.955,-437.5 357.955,-499.5 357.955,-499.5 357.955,-505.5 351.955,-511.5 345.955,-511.5 345.955,-511.5 236.944,-511.5 236.944,-511.5 230.944,-511.5 224.944,-505.5 224.944,-499.5 224.944,-499.5 224.944,-437.5 224.944,-437.5 224.944,-431.5 230.944,-425.5 236.944,-425.5"/>
<text text-anchor="middle" x="291.45" y="-496.3" font-family="Times,serif" font-size="14.00">Category</text>
<polyline fill="none" stroke="black" points="224.944,-489.5 357.955,-489.5 "/>
<text text-anchor="start" x="232.944" y="-474.3" font-family="Times,serif" font-size="14.00">id :INTEGER</text>
<text text-anchor="start" x="232.944" y="-460.3" font-family="Times,serif" font-size="14.00">name :varchar</text>
<text text-anchor="start" x="232.944" y="-446.3" font-family="Times,serif" font-size="14.00">created_at :datetime</text>
<text text-anchor="start" x="232.944" y="-432.3" font-family="Times,serif" font-size="14.00">updated_at :datetime</text>
</g>
<!-- Post -->
<g id="node4" class="node"><title>Post</title>
<path fill="none" stroke="black" d="M174.944,-288.5C174.944,-288.5 283.955,-288.5 283.955,-288.5 289.955,-288.5 295.955,-294.5 295.955,-300.5 295.955,-300.5 295.955,-376.5 295.955,-376.5 295.955,-382.5 289.955,-388.5 283.955,-388.5 283.955,-388.5 174.944,-388.5 174.944,-388.5 168.944,-388.5 162.944,-382.5 162.944,-376.5 162.944,-376.5 162.944,-300.5 162.944,-300.5 162.944,-294.5 168.944,-288.5 174.944,-288.5"/>
<text text-anchor="middle" x="229.45" y="-373.3" font-family="Times,serif" font-size="14.00">Post</text>
<polyline fill="none" stroke="black" points="162.944,-366.5 295.955,-366.5 "/>
<text text-anchor="start" x="170.944" y="-351.3" font-family="Times,serif" font-size="14.00">id :INTEGER</text>
<text text-anchor="start" x="170.944" y="-337.3" font-family="Times,serif" font-size="14.00">title :varchar</text>
<text text-anchor="start" x="170.944" y="-323.3" font-family="Times,serif" font-size="14.00">content :varchar</text>
<text text-anchor="start" x="170.944" y="-309.3" font-family="Times,serif" font-size="14.00">created_at :datetime</text>
<text text-anchor="start" x="170.944" y="-295.3" font-family="Times,serif" font-size="14.00">updated_at :datetime</text>
</g>
<!-- Category&#45;&gt;Post -->
<g id="edge2" class="edge"><title>Category&#45;&gt;Post</title>
<path fill="none" stroke="#78f483" d="M266.522,-416.036C263.669,-410.146 260.745,-404.109 257.851,-398.134"/>
<polygon fill="#78f483" stroke="#78f483" points="266.617,-416.233 266.927,-427.195 268.797,-420.733 270.977,-425.233 270.977,-425.233 270.977,-425.233 268.797,-420.733 275.027,-423.272 266.617,-416.233 266.617,-416.233"/>
<polygon fill="#78f483" stroke="#78f483" points="257.702,-397.828 257.393,-386.866 255.523,-393.328 253.343,-388.828 253.343,-388.828 253.343,-388.828 255.523,-393.328 249.293,-390.79 257.702,-397.828 257.702,-397.828"/>
</g>
<!-- PostCategory -->
<g id="node5" class="node"><title>PostCategory</title>
<path fill="none" stroke="black" d="M311.944,-151.5C311.944,-151.5 420.955,-151.5 420.955,-151.5 426.955,-151.5 432.955,-157.5 432.955,-163.5 432.955,-163.5 432.955,-239.5 432.955,-239.5 432.955,-245.5 426.955,-251.5 420.955,-251.5 420.955,-251.5 311.944,-251.5 311.944,-251.5 305.944,-251.5 299.944,-245.5 299.944,-239.5 299.944,-239.5 299.944,-163.5 299.944,-163.5 299.944,-157.5 305.944,-151.5 311.944,-151.5"/>
<text text-anchor="middle" x="366.45" y="-236.3" font-family="Times,serif" font-size="14.00">PostCategory</text>
<polyline fill="none" stroke="black" points="299.944,-229.5 432.955,-229.5 "/>
<text text-anchor="start" x="307.944" y="-214.3" font-family="Times,serif" font-size="14.00">id :INTEGER</text>
<text text-anchor="start" x="307.944" y="-200.3" font-family="Times,serif" font-size="14.00">post_id :integer</text>
<text text-anchor="start" x="307.944" y="-186.3" font-family="Times,serif" font-size="14.00">category_id :integer</text>
<text text-anchor="start" x="307.944" y="-172.3" font-family="Times,serif" font-size="14.00">created_at :datetime</text>
<text text-anchor="start" x="307.944" y="-158.3" font-family="Times,serif" font-size="14.00">updated_at :datetime</text>
</g>
<!-- Category&#45;&gt;PostCategory -->
<g id="edge1" class="edge"><title>Category&#45;&gt;PostCategory</title>
<path fill="none" stroke="#a763be" d="M305.596,-417.515C318.139,-373.198 336.472,-308.421 349.735,-261.559"/>
<ellipse fill="none" stroke="#a763be" cx="304.506" cy="-421.368" rx="4.00001" ry="4.00001"/>
<polygon fill="#a763be" stroke="#a763be" points="349.761,-261.467 356.814,-253.071 351.122,-256.656 352.484,-251.845 352.484,-251.845 352.484,-251.845 351.122,-256.656 348.154,-250.62 349.761,-261.467 349.761,-261.467"/>
</g>
<!-- Comment -->
<g id="node3" class="node"><title>Comment</title>
<path fill="none" stroke="black" d="M112.944,-0.5C112.944,-0.5 221.955,-0.5 221.955,-0.5 227.955,-0.5 233.955,-6.5 233.955,-12.5 233.955,-12.5 233.955,-102.5 233.955,-102.5 233.955,-108.5 227.955,-114.5 221.955,-114.5 221.955,-114.5 112.944,-114.5 112.944,-114.5 106.944,-114.5 100.944,-108.5 100.944,-102.5 100.944,-102.5 100.944,-12.5 100.944,-12.5 100.944,-6.5 106.944,-0.5 112.944,-0.5"/>
<text text-anchor="middle" x="167.45" y="-99.3" font-family="Times,serif" font-size="14.00">Comment</text>
<polyline fill="none" stroke="black" points="100.944,-92.5 233.955,-92.5 "/>
<text text-anchor="start" x="108.944" y="-77.3" font-family="Times,serif" font-size="14.00">id :INTEGER</text>
<text text-anchor="start" x="108.944" y="-63.3" font-family="Times,serif" font-size="14.00">content :varchar</text>
<text text-anchor="start" x="108.944" y="-49.3" font-family="Times,serif" font-size="14.00">user_id :integer</text>
<text text-anchor="start" x="108.944" y="-35.3" font-family="Times,serif" font-size="14.00">post_id :integer</text>
<text text-anchor="start" x="108.944" y="-21.3" font-family="Times,serif" font-size="14.00">created_at :datetime</text>
<text text-anchor="start" x="108.944" y="-7.3" font-family="Times,serif" font-size="14.00">updated_at :datetime</text>
</g>
<!-- Post&#45;&gt;Comment -->
<g id="edge4" class="edge"><title>Post&#45;&gt;Comment</title>
<path fill="none" stroke="#cec943" d="M158.535,-282.004C150.808,-272.843 144.078,-262.781 139.45,-252 122.168,-211.744 129.428,-162.897 140.877,-124.353"/>
<ellipse fill="none" stroke="#cec943" cx="161.377" cy="-285.208" rx="4.00002" ry="4.00002"/>
<polygon fill="#cec943" stroke="#cec943" points="140.883,-124.332 148.161,-116.129 142.374,-119.559 143.865,-114.787 143.865,-114.787 143.865,-114.787 142.374,-119.559 139.57,-113.445 140.883,-124.332 140.883,-124.332"/>
</g>
<!-- Post&#45;&gt;PostCategory -->
<g id="edge3" class="edge"><title>Post&#45;&gt;PostCategory</title>
<path fill="none" stroke="#631ab2" d="M285.019,-282.742C292.971,-274.906 301.164,-266.833 309.148,-258.965"/>
<ellipse fill="none" stroke="#631ab2" cx="282.147" cy="-285.572" rx="4.00002" ry="4.00002"/>
<polygon fill="#631ab2" stroke="#631ab2" points="309.287,-258.829 319.568,-255.015 312.848,-255.319 316.41,-251.81 316.41,-251.81 316.41,-251.81 312.848,-255.319 313.251,-248.604 309.287,-258.829 309.287,-258.829"/>
</g>
<!-- User -->
<g id="node6" class="node"><title>User</title>
<path fill="none" stroke="black" d="M160.944,-151.5C160.944,-151.5 269.955,-151.5 269.955,-151.5 275.955,-151.5 281.955,-157.5 281.955,-163.5 281.955,-163.5 281.955,-239.5 281.955,-239.5 281.955,-245.5 275.955,-251.5 269.955,-251.5 269.955,-251.5 160.944,-251.5 160.944,-251.5 154.944,-251.5 148.944,-245.5 148.944,-239.5 148.944,-239.5 148.944,-163.5 148.944,-163.5 148.944,-157.5 154.944,-151.5 160.944,-151.5"/>
<text text-anchor="middle" x="215.45" y="-236.3" font-family="Times,serif" font-size="14.00">User</text>
<polyline fill="none" stroke="black" points="148.944,-229.5 281.955,-229.5 "/>
<text text-anchor="start" x="156.944" y="-214.3" font-family="Times,serif" font-size="14.00">id :INTEGER</text>
<text text-anchor="start" x="156.944" y="-200.3" font-family="Times,serif" font-size="14.00">username :varchar</text>
<text text-anchor="start" x="156.944" y="-186.3" font-family="Times,serif" font-size="14.00">email :varchar</text>
<text text-anchor="start" x="156.944" y="-172.3" font-family="Times,serif" font-size="14.00">created_at :datetime</text>
<text text-anchor="start" x="156.944" y="-158.3" font-family="Times,serif" font-size="14.00">updated_at :datetime</text>
</g>
<!-- Post&#45;&gt;User -->
<g id="edge5" class="edge"><title>Post&#45;&gt;User</title>
<path fill="none" stroke="#9658f9" d="M223.297,-278.17C222.741,-272.806 222.177,-267.372 221.621,-262.007"/>
<polygon fill="#9658f9" stroke="#9658f9" points="223.324,-278.433 219.88,-288.844 223.84,-283.407 224.356,-288.38 224.356,-288.38 224.356,-288.38 223.84,-283.407 228.832,-287.916 223.324,-278.433 223.324,-278.433"/>
<polygon fill="#9658f9" stroke="#9658f9" points="221.595,-261.756 225.039,-251.345 221.079,-256.783 220.563,-251.81 220.563,-251.81 220.563,-251.81 221.079,-256.783 216.087,-252.274 221.595,-261.756 221.595,-261.756"/>
</g>
<!-- User&#45;&gt;Comment -->
<g id="edge6" class="edge"><title>User&#45;&gt;Comment</title>
<path fill="none" stroke="#b84d8a" d="M196.165,-143.449C194.084,-137.293 191.954,-130.992 189.841,-124.74"/>
<ellipse fill="none" stroke="#b84d8a" cx="197.515" cy="-147.444" rx="4.00001" ry="4.00001"/>
<polygon fill="#b84d8a" stroke="#b84d8a" points="189.745,-124.457 190.806,-113.543 188.144,-119.721 186.543,-114.984 186.543,-114.984 186.543,-114.984 188.144,-119.721 182.28,-116.425 189.745,-124.457 189.745,-124.457"/>
</g>
</g>
</svg>
