<?xml version="1.0" encoding="UTF-8" standalone="no"?>
<!DOCTYPE svg PUBLIC "-//W3C//DTD SVG 1.1//EN"
 "http://www.w3.org/Graphics/SVG/1.1/DTD/svg11.dtd">
<!-- Generated by graphviz version 2.38.0 (20140413.2041)
 -->
<!-- Title: models_diagram Pages: 1 -->
<svg width="384pt" height="297pt"
 viewBox="0.00 0.00 384.21 297.00" xmlns="http://www.w3.org/2000/svg" xmlns:xlink="http://www.w3.org/1999/xlink">
<g id="graph0" class="graph" transform="scale(1 1) rotate(0) translate(4 293)">
<title>models_diagram</title>
<polygon fill="none" stroke="none" points="-4,4 -4,-293 380.211,-293 380.211,4 -4,4"/>
<!-- _diagram_info -->
<g id="node1" class="node"><title>_diagram_info</title>
<text text-anchor="start" x="8" y="-274.6" font-family="Times,serif" font-size="13.00">Models diagram</text>
<text text-anchor="start" x="8" y="-261.6" font-family="Times,serif" font-size="13.00">Date: Aug 22 2016 &#45; 18:02</text>
<text text-anchor="start" x="8" y="-248.6" font-family="Times,serif" font-size="13.00">Migration version: 20160119152016</text>
<text text-anchor="start" x="8" y="-235.6" font-family="Times,serif" font-size="13.00">Generated by RailRoady 1.5.1</text>
<text text-anchor="start" x="8" y="-222.6" font-family="Times,serif" font-size="13.00">http://railroady.prestonlee.com</text>
</g>
<!-- Category -->
<g id="node2" class="node"><title>Category</title>
<ellipse fill="none" stroke="black" cx="267.45" cy="-252.5" rx="42.5456" ry="18"/>
<text text-anchor="middle" x="267.45" y="-248.3" font-family="Times,serif" font-size="14.00">Category</text>
</g>
<!-- Post -->
<g id="node4" class="node"><title>Post</title>
<ellipse fill="none" stroke="black" cx="227.45" cy="-162" rx="27" ry="18"/>
<text text-anchor="middle" x="227.45" y="-157.8" font-family="Times,serif" font-size="14.00">Post</text>
</g>
<!-- Category&#45;&gt;Post -->
<g id="edge2" class="edge"><title>Category&#45;&gt;Post</title>
<path fill="none" stroke="#15092f" d="M255.577,-225.232C250.383,-213.741 244.309,-200.3 239.136,-188.856"/>
<polygon fill="#15092f" stroke="#15092f" points="255.619,-225.324 255.637,-236.29 257.678,-229.88 259.737,-234.436 259.737,-234.436 259.737,-234.436 257.678,-229.88 263.838,-232.583 255.619,-225.324 255.619,-225.324"/>
<polygon fill="#15092f" stroke="#15092f" points="238.987,-188.525 238.969,-177.559 236.927,-183.969 234.868,-179.413 234.868,-179.413 234.868,-179.413 236.927,-183.969 230.767,-181.266 238.987,-188.525 238.987,-188.525"/>
</g>
<!-- PostCategory -->
<g id="node5" class="node"><title>PostCategory</title>
<ellipse fill="none" stroke="black" cx="318.45" cy="-90" rx="57.5237" ry="18"/>
<text text-anchor="middle" x="318.45" y="-85.8" font-family="Times,serif" font-size="14.00">PostCategory</text>
</g>
<!-- Category&#45;&gt;PostCategory -->
<g id="edge1" class="edge"><title>Category&#45;&gt;PostCategory</title>
<path fill="none" stroke="#f66cbb" d="M275.289,-226.83C284.632,-197.428 300.19,-148.465 309.854,-118.051"/>
<ellipse fill="none" stroke="#f66cbb" cx="274.023" cy="-230.815" rx="4.00001" ry="4.00001"/>
<polygon fill="#f66cbb" stroke="#f66cbb" points="309.978,-117.66 317.295,-109.493 311.492,-112.895 313.007,-108.13 313.007,-108.13 313.007,-108.13 311.492,-112.895 308.718,-106.767 309.978,-117.66 309.978,-117.66"/>
</g>
<!-- Comment -->
<g id="node3" class="node"><title>Comment</title>
<ellipse fill="none" stroke="black" cx="187.45" cy="-18" rx="44.9768" ry="18"/>
<text text-anchor="middle" x="187.45" y="-13.8" font-family="Times,serif" font-size="14.00">Comment</text>
</g>
<!-- Post&#45;&gt;Comment -->
<g id="edge4" class="edge"><title>Post&#45;&gt;Comment</title>
<path fill="none" stroke="#d05f2b" d="M204.025,-142.165C194.475,-132.992 184.505,-121.112 179.45,-108 171.799,-88.1554 174.637,-64.0414 178.924,-45.9219"/>
<ellipse fill="none" stroke="#d05f2b" cx="207.23" cy="-145.091" rx="4.00002" ry="4.00002"/>
<polygon fill="#d05f2b" stroke="#d05f2b" points="178.985,-45.6901 185.897,-37.1765 180.266,-40.8569 181.547,-36.0237 181.547,-36.0237 181.547,-36.0237 180.266,-40.8569 177.197,-34.871 178.985,-45.6901 178.985,-45.6901"/>
</g>
<!-- Post&#45;&gt;PostCategory -->
<g id="edge3" class="edge"><title>Post&#45;&gt;PostCategory</title>
<path fill="none" stroke="#37dad3" d="M251.281,-142.668C262.954,-133.689 277.11,-122.8 289.41,-113.338"/>
<ellipse fill="none" stroke="#37dad3" cx="247.737" cy="-145.395" rx="4.00002" ry="4.00002"/>
<polygon fill="#37dad3" stroke="#37dad3" points="289.65,-113.154 300.32,-110.623 293.613,-110.105 297.576,-107.057 297.576,-107.057 297.576,-107.057 293.613,-110.105 294.832,-103.49 289.65,-113.154 289.65,-113.154"/>
</g>
<!-- User -->
<g id="node6" class="node"><title>User</title>
<ellipse fill="none" stroke="black" cx="215.45" cy="-90" rx="27" ry="18"/>
<text text-anchor="middle" x="215.45" y="-85.8" font-family="Times,serif" font-size="14.00">User</text>
</g>
<!-- Post&#45;&gt;User -->
<g id="edge5" class="edge"><title>Post&#45;&gt;User</title>
<path fill="none" stroke="#be4d91" d="M222.822,-134.005C221.942,-128.873 221.021,-123.499 220.139,-118.355"/>
<polygon fill="#be4d91" stroke="#be4d91" points="222.855,-134.199 220.11,-144.815 223.7,-139.127 224.545,-144.055 224.545,-144.055 224.545,-144.055 223.7,-139.127 228.98,-143.295 222.855,-134.199 222.855,-134.199"/>
<polygon fill="#be4d91" stroke="#be4d91" points="220.101,-118.132 222.846,-107.515 219.256,-113.203 218.411,-108.275 218.411,-108.275 218.411,-108.275 219.256,-113.203 213.976,-109.036 220.101,-118.132 220.101,-118.132"/>
</g>
<!-- User&#45;&gt;Comment -->
<g id="edge6" class="edge"><title>User&#45;&gt;Comment</title>
<path fill="none" stroke="#17d6b4" d="M205.761,-64.7779C203.267,-58.544 200.572,-51.8046 198.035,-45.4634"/>
<ellipse fill="none" stroke="#17d6b4" cx="207.329" cy="-68.6971" rx="4.00001" ry="4.00001"/>
<polygon fill="#17d6b4" stroke="#17d6b4" points="197.946,-45.241 198.41,-34.2849 196.089,-40.5986 194.232,-35.9562 194.232,-35.9562 194.232,-35.9562 196.089,-40.5986 190.054,-37.6275 197.946,-45.241 197.946,-45.241"/>
</g>
</g>
</svg>
